<svg xmlns="http://www.w3.org/2000/svg" id="Слой_1" data-name="Слой 1" viewBox="0 0 156.436 68.96" fill="white">
  <defs/>
  <path d="M38.581 29.278h8.561l-4.28-12.568-4.281 12.568z" class="cls-1"/>
  <path d="M290.855 1403.286h-7.02v9.224h7.02c3.31 0 4.966-1.557 4.966-4.612 0-3.056-1.655-4.612-4.966-4.612Z" class="cls-1" transform="translate(-205.246 -1387.325)"/>
  <path d="M205.246 1387.325v53.816h156.437v-53.816Zm53.193 46.977-2.854-8.36H240.63l-2.853 8.36h-10.274l14.497-40.356h12.214l14.497 40.356Zm32.816-12.452h-7.42v12.452h-9.702v-40.356h17.122c8.447 0 14.382 4.9 14.382 13.836 0 8.937-5.935 14.068-14.382 14.068Zm48.17-18.564h-17.808v5.996h16.21v9.34h-16.21v6.34h17.808v9.34h-27.51v-40.356h27.51ZM242.07 1450.402a3.391 3.391 0 0 1 3.48-3.48 3.275 3.275 0 0 1 3.25 2.422h-1.472a1.886 1.886 0 0 0-1.787-1.115 2.175 2.175 0 0 0 0 4.346 1.888 1.888 0 0 0 1.787-1.115h1.472a3.275 3.275 0 0 1-3.25 2.421 3.39 3.39 0 0 1-3.48-3.479ZM253.046 1448.383v1.414a2.99 2.99 0 0 0-.337-.02 1.455 1.455 0 0 0-1.625 1.635v2.354h-1.374v-5.287h1.374v.923a1.719 1.719 0 0 1 1.654-1.038 2.577 2.577 0 0 1 .308.02ZM259.034 1451.478h-4.057a1.31 1.31 0 0 0 1.374 1.27 1.222 1.222 0 0 0 1.173-.663h1.423a2.553 2.553 0 0 1-2.586 1.796 2.76 2.76 0 1 1 2.673-2.403Zm-3.99-1.009h2.528a1.23 1.23 0 0 0-1.25-.97 1.28 1.28 0 0 0-1.278.97ZM265.289 1448.48l-.01 5.286h-1.374v-.71a1.964 1.964 0 0 1-1.654.825 2.784 2.784 0 0 1-.01-5.517 1.985 1.985 0 0 1 1.673.855v-.74Zm-1.375 2.643a1.355 1.355 0 0 0-1.355-1.451 1.455 1.455 0 1 0 1.355 1.45ZM270.545 1453.459a3.224 3.224 0 0 1-1.576.422 1.907 1.907 0 0 1-1.98-2.153v-1.951h-.943v-1.298h.943v-1.143l1.374-.298v1.441h1.961v1.298h-1.96v1.875c0 .624.297.951.845.951a3.52 3.52 0 0 0 1.105-.26ZM272.985 1446.845a.808.808 0 0 1-.855.817.813.813 0 1 1 0-1.624.801.801 0 0 1 .855.807Zm-1.548 1.634h1.375v5.287h-1.375ZM278.858 1448.48l-1.817 5.286h-1.644l-1.817-5.287h1.461l1.173 3.797 1.182-3.797ZM284.614 1451.478h-4.057a1.31 1.31 0 0 0 1.375 1.27 1.222 1.222 0 0 0 1.173-.663h1.423a2.553 2.553 0 0 1-2.586 1.796 2.76 2.76 0 1 1 2.672-2.403Zm-3.99-1.009h2.529a1.23 1.23 0 0 0-1.25-.97 1.28 1.28 0 0 0-1.279.97ZM292.897 1452.18h-2.72l-.578 1.586h-1.451l2.518-6.728h1.74l2.52 6.728h-1.462Zm-.48-1.307-.885-2.442-.885 2.442ZM300.691 1448.48v5.219a2.435 2.435 0 0 1-2.615 2.586 2.478 2.478 0 0 1-2.682-2.029h1.423a1.12 1.12 0 0 0 1.22.808 1.154 1.154 0 0 0 1.28-1.326v-.76a1.996 1.996 0 0 1-1.664.827 2.74 2.74 0 0 1 0-5.441 1.988 1.988 0 0 1 1.663.846v-.73Zm-1.375 2.605a1.344 1.344 0 0 0-1.355-1.413 1.414 1.414 0 1 0 1.355 1.413ZM307.12 1451.478h-4.057a1.31 1.31 0 0 0 1.374 1.27 1.222 1.222 0 0 0 1.173-.663h1.423a2.553 2.553 0 0 1-2.586 1.796 2.76 2.76 0 1 1 2.673-2.403Zm-3.99-1.009h2.528a1.229 1.229 0 0 0-1.249-.97 1.281 1.281 0 0 0-1.28.97ZM312.981 1450.45v3.316h-1.374v-3.018c0-.692-.26-1.076-.99-1.076-.78 0-1.192.45-1.192 1.316v2.778h-1.375v-5.287h1.375v.72a1.9 1.9 0 0 1 1.643-.835 1.848 1.848 0 0 1 1.913 2.086ZM313.902 1451.123a2.688 2.688 0 0 1 2.759-2.76 2.53 2.53 0 0 1 2.634 2.126h-1.413a1.191 1.191 0 0 0-1.221-.857 1.496 1.496 0 0 0-.01 2.98 1.202 1.202 0 0 0 1.23-.864h1.414a2.527 2.527 0 0 1-2.644 2.133 2.686 2.686 0 0 1-2.749-2.758ZM325.139 1448.48l-3.443 7.69h-1.46l1.384-3.105-2.038-4.586h1.46l1.308 3.096 1.317-3.096Z" class="cls-1" transform="translate(-205.246 -1387.325)"/>
</svg>