<svg xmlns="http://www.w3.org/2000/svg" id="Слой_1" data-name="Слой 1" viewBox="0 0 157.503 40.163">
  <defs/>
  <path d="m270.606 162.17-5.109-3.97h-.072v3.97h-5.565v-8.395h5.829l4.87 3.778h.07v-3.778h5.566v8.395ZM286.111 162.35c-6.02 0-9.067-1.247-9.067-4.377s3.046-4.378 9.067-4.378c6.02 0 9.067 1.247 9.067 4.378s-3.046 4.377-9.067 4.377Zm0-5.589c-1.799 0-2.902.18-2.902 1.212s1.103 1.211 2.902 1.211c1.8 0 2.903-.132 2.903-1.211 0-1.008-1.104-1.212-2.903-1.212ZM300.105 162.17v-5.109h-4.51v-3.286h14.848v3.286h-4.51v5.11ZM287.864 176.679h-4.999l-1.25 2.5h-3.292l6.982-13.232h2.817l3.55 13.231h-3.133Zm-.555-2.341-1.071-4.661-2.222 4.66ZM221.152 193.11a33.517 33.517 0 0 1-6.357.648c-6.308 0-8.659-1.343-8.659-4.27 0-3.058 2.303-4.485 9.187-4.485a38.664 38.664 0 0 1 5.83.516l-.612 3.034a35.32 35.32 0 0 0-4.51-.324c-2.375 0-3.73.132-3.73 1.151 0 1.008 1.02 1.152 3.694 1.152a18.48 18.48 0 0 0 4.498-.456ZM230.299 193.758c-6.02 0-9.067-1.247-9.067-4.378s3.046-4.377 9.067-4.377c6.02 0 9.067 1.247 9.067 4.377s-3.046 4.378-9.067 4.378Zm0-5.59c-1.799 0-2.903.181-2.903 1.212 0 1.032 1.104 1.212 2.903 1.212 1.8 0 2.903-.132 2.903-1.212 0-1.007-1.104-1.211-2.903-1.211ZM250.962 193.578l-5.11-3.97h-.071v3.97h-5.565v-8.395h5.829l4.87 3.777h.07v-3.777h5.566v8.395ZM263.589 191.24v2.338h-5.83v-8.395h12.618v2.614h-6.788v.828h5.948v2.614ZM271.32 193.578v-8.395h13.516v2.446h-7.688v.636h6.345v2.207h-6.345v.66h7.688v2.446ZM295.134 193.578l-1.93-2.039h-1.475v2.04h-5.83v-8.396h9.5c4.46 0 5.9 1.02 5.9 3.106 0 .768-.323 1.895-2.375 2.59l2.89 2.7Zm-3.573-5.949v1.464h1.894c1.44 0 1.919-.192 1.919-.732 0-.588-.48-.732-2.015-.732ZM302.544 193.578v-8.395h13.517v2.446h-7.688v.636h6.345v2.207h-6.345v.66h7.688v2.446ZM327.87 193.578l-5.11-3.97h-.072v3.97h-5.565v-8.395h5.83l4.868 3.777h.073v-3.777h5.564v8.395ZM349.323 193.11a33.52 33.52 0 0 1-6.356.648c-6.309 0-8.66-1.343-8.66-4.27 0-3.058 2.303-4.485 9.187-4.485a38.67 38.67 0 0 1 5.83.516l-.613 3.034a35.298 35.298 0 0 0-4.509-.324c-2.375 0-3.73.132-3.73 1.151 0 1.008 1.02 1.152 3.694 1.152a18.47 18.47 0 0 0 4.497-.456ZM350.123 193.578v-8.395h13.517v2.446h-7.688v.636h6.345v2.207h-6.345v.66h7.688v2.446Z" class="cls-1" transform="translate(-206.136 -153.595)"/>
</svg>