<svg xmlns="http://www.w3.org/2000/svg" data-name="Слой 1" viewBox="0 0 843.038 147.784">
  <g data-name="Слой 2">
    <g data-name="Слой 1-2">
      <path d="M112.738 29.573V2.84H0v26.733h40.559v118.211l31.411-37.51V29.573h40.768zM133.08 37.468v107.475h31.453V0L133.08 37.468zM262.025 85.713l-18.88 50.375v8.855h9.273l4.177-11.946h23.266l4.177 11.946h10.109v-9.607L275.35 85.713Zm-1.629 36.549 7.895-22.39 7.811 22.39ZM643.806 114.158l18.129-21.052v-7.393h-9.106l-21.387 25.438V85.713h-13.115v59.23h13.115v-25.73l22.389 25.73h10.318v-7.602l-20.343-23.183zM470.376 85.713h-21.178v59.23h13.116v-19.34h8.062c15.163 0 22.807-9.94 22.807-20.383 0-11.905-8.814-19.507-22.807-19.507m0 28.988h-8.354V96.615h8.354a8.688 8.688 0 0 1 9.774 8.688 8.98 8.98 0 0 1-9.774 9.398M405.799 85.713l-18.88 50.375v8.855h9.273l4.177-11.946h23.266l4.177 11.946h10.15v-9.607l-18.797-49.623Zm-1.629 36.549 7.895-22.39 7.81 22.39ZM515.571 85.713l-18.88 50.375v8.855h9.273l4.177-11.946h23.308l4.177 11.946h10.109v-9.607l-18.797-49.623Zm-1.796 36.549 7.895-22.39 7.853 22.39ZM561.101 144.943v-59.23h19.507c13.742 0 22.43 7.351 22.43 18.88a17.418 17.418 0 0 1-10.65 16.249l12.53 16.708v7.393h-10.275l-15.163-20.885h-5.305v20.885Zm19.507-31.411a8.354 8.354 0 0 0 9.357-8.772c0-4.595-3.384-7.895-9.357-7.895h-6.474v16.709ZM298.157 85.713h11.152l14.829 43.107 15.246-43.107h10.276v8.855l-18.588 50.375h-14.286l-18.629-50.375v-8.855zM362.441 85.713h13.116v59.189h-13.116zM259.812 62.029V13.951h-16.709V2.841h46.783v11.11h-16.959V62.03ZM311.23 62.029h-13.073V2.84h19.298a24.686 24.686 0 0 1 16.332 5.138 17.084 17.084 0 0 1 6.182 13.743 17.585 17.585 0 0 1-10.652 16.248l13.66 17.92v6.14h-11.279l-15.162-20.885h-5.305Zm-.208-31.411h6.433a8.354 8.354 0 0 0 9.398-8.772c0-4.47-3.425-7.895-9.398-7.895h-6.433ZM352.709 62.029V2.84h37.176v11.111h-24.102v12.531h21.303V36.8h-21.303v14.118h24.101V62.03ZM401.288 62.029V2.84h12.53l25.063 37.594V2.84h12.531V62.03h-12.53l-25.355-36.967v37.009ZM464.737 62.029V2.84h20.885a28.362 28.362 0 0 1 29.521 27.154q.044 1.042.01 2.086a28.57 28.57 0 0 1-27.272 29.813q-1.129.05-2.259.01Zm13.116-11.11h7.393c10.36 0 16.29-8.355 16.29-18.714s-5.93-18.254-16.29-18.254h-7.393ZM545.604 62.029V2.84h13.116V62.03ZM577.183 59.69a18.254 18.254 0 0 1-7.227-8.354V45.32h10.318a11.153 11.153 0 0 0 11.695 7.184c5.43 0 9.232-2.548 9.232-6.975s-2.674-6.057-8.689-7.394l-5.43-1.044c-10.735-2.13-16.708-7.978-16.708-17.418a16.207 16.207 0 0 1 5.932-13.283 24.101 24.101 0 0 1 15.496-4.72c10.819 0 18.38 4.47 20.05 11.737v6.015h-10.359a9.19 9.19 0 0 0-9.983-6.892c-5.472 0-8.563 2.673-8.563 6.558 0 3.216 2.214 5.347 7.895 6.6l5.68 1.295c10.735 2.172 17.377 8.354 17.377 17.96 0 11.237-9.064 18.422-22.18 18.422a26.357 26.357 0 0 1-14.536-3.676ZM625.135 62.029V2.84h13.116v48.078h23.684V62.03ZM678.1 62.029h-10.484v-5.514L687.749 2.84h13.325l20.05 52.882v6.307h-11.362l-4.595-12.531h-22.556Zm23.642-23.266-7.728-21.804-7.727 21.804ZM729.185 62.029V2.84h12.531l25.062 37.594V2.84h12.532V62.03h-12.532L741.716 25.02V62.03ZM792.634 62.029V2.84h20.885a28.362 28.362 0 0 1 29.482 27.197q.04 1.021.008 2.043a28.57 28.57 0 0 1-27.274 29.811q-1.107.05-2.216.013Zm13.074-11.11h7.435c10.36 0 16.25-8.355 16.25-18.714s-5.89-18.254-16.25-18.254h-7.435Z"/>
    </g>
  </g>
</svg>