<svg xmlns="http://www.w3.org/2000/svg" width="163" height="32" fill="none" viewBox="0 0 163 32">
  <g fill="black" fill-rule="evenodd" clip-path="url(#a)" clip-rule="evenodd">
    <path d="m46.045 13.073 8.177-.006c5.155 0 7.822 2.31 7.823 6.399 0 2.845-1.403 6.4-7.813 6.4H40V6.135h20.621v4.444H46.043l.002 2.495Zm7.466 8.348c1.601 0 2.49-.712 2.49-1.955 0-1.244-.89-1.955-2.49-1.955h-7.468v3.91h7.468Zm82.902-.178h5.986c0 1.245-1.087 4.978-9.059 4.976h-.724c-7.428 0-9.24-4-9.24-7.546V18.3c0-3.635 1.599-7.546 9.244-7.546h.534c8 0 9.244 4.088 9.244 8.346v.542l-13.169-.002c.183 1.778 1.438 2.847 4.038 2.847 2.558 0 2.925-.778 3.11-1.17l.007-.015.01-.022.019-.037Zm-.057-4.446c0-1.244-.711-2.487-3.556-2.487-2.489 0-3.379 1.066-3.556 2.489l7.112-.002ZM156.777 20h5.889c0 2.134-1.422 6.222-9.066 6.22h-.356c-7.644 0-9.244-4.62-9.244-7.465v-.533c0-2.843 1.511-7.467 9.244-7.466h.356c7.552-.001 9.066 3.912 9.066 6.046H156.8c-.152-.89-.89-2.134-3.2-2.134h-.356c-2.31 0-3.377 1.778-3.377 3.733v.177c0 1.956 1.243 3.556 3.377 3.556h.356c2.489 0 3.023-1.423 3.177-2.134Zm-40.867 5.867h5.689V11.112h-5.689v5.333h-6.755v-5.332h-5.689v14.754h5.689v-5.334h6.755v5.334Zm-14.223-4.445v.177c0 2.845-3.022 4.622-8.71 4.622h-.71c-6.046 0-8.712-2.312-8.712-5.298v-.21l5.866-.002c.177 1.599 1.6 1.955 3.378 1.955 1.994 0 3.021-.356 3.021-1.423 0-1.084-.718-1.42-2.235-1.42l-3.097-.002v-3.2h3.022c1.245 0 1.778-.356 1.778-1.244 0-.89-.888-1.423-2.666-1.423s-2.664.533-2.845 1.6h-6.045v-.181c0-3.02 3.556-4.62 8.711-4.62h.356c5.155 0 8.355 1.423 8.355 3.912v.356c0 2.134-2.028 2.937-3.272 3.202 1.515.292 3.805.888 3.805 3.199Zm-25.421 4.445h5.69V11.112h-5.867l-6.578 8.533v-8.532h-5.69v14.754h5.867l6.578-8.533v8.533ZM32 16c0 8.837-7.163 16-16 16S0 24.837 0 16 7.163 0 16 0s16 7.163 16 16Zm-10.839 9.12V6.86h-4.596c-4.446 0-7.099 2.208-7.099 5.907 0 2.909 1.488 4.57 3.724 6.171l.037.027-.026.037-4.119 6.136h3.357l4.604-6.88-1.577-1.064c-1.985-1.347-2.93-2.38-2.93-4.615 0-2.085 1.513-3.33 4.046-3.33H18.057V25.12h3.104Z"/>
  </g>
  <defs>
    <clipPath id="a">
      <path fill="black" d="M0 0h162.666v32H0z"/>
    </clipPath>
  </defs>
</svg>