<svg xmlns="http://www.w3.org/2000/svg" width="549" height="108" fill="none" viewBox="0 0 549 108">
  <g fill="#323555" fill-rule="evenodd" clip-path="url(#a)" clip-rule="evenodd">
    <path d="m155.402 44.12 27.597-.02c17.399 0 26.397 7.798 26.403 21.596 0 9.602-4.737 21.603-26.371 21.603H135V20.701h69.595v14.998h-49.199l.006 8.42Zm25.197 28.174c5.404 0 8.401-2.4 8.401-6.597 0-4.198-3.004-6.598-8.401-6.598h-25.203v13.195h25.203Zm162.597.004v.597c0 9.6-10.198 15.601-29.394 15.601h-2.4c-20.403 0-29.401-7.804-29.401-17.881v-.711l19.8-.007c.596 5.398 5.397 6.598 11.398 6.598 6.731 0 10.198-1.2 10.198-4.8 0-3.658-2.426-4.795-7.544-4.795l-10.452-.006V56.093h10.198c4.204 0 6.001-1.2 6.001-4.198 0-3.003-2.997-4.8-8.998-4.8-6.001 0-8.992 1.797-9.601 5.397h-20.403v-.61c0-10.191 12.002-15.588 29.401-15.588h1.2c17.399 0 28.2 4.8 28.2 13.201v1.2c0 7.201-6.845 9.912-11.043 10.808 5.112.984 12.84 2.997 12.84 10.795Zm117.195-.603h20.205c0 4.203-3.67 16.801-30.575 16.795h-2.444c-25.07 0-31.185-13.5-31.185-25.47v-1.257c0-12.268 5.397-25.47 31.197-25.47h1.804c27 0 31.197 13.799 31.197 28.169v1.829l-44.443-.007c.616 6.001 4.851 9.608 13.627 9.608 8.634 0 9.872-2.625 10.495-3.945l.001-.002.003-.007c.041-.087.08-.169.118-.243ZM460.2 56.69c0-4.198-2.4-8.395-12.001-8.395-8.401 0-11.405 3.6-12.002 8.4l24.003-.005Zm68.923 10.81h19.875c0 7.201-4.801 21-30.601 20.993h-1.2c-25.8 0-31.197-15.595-31.197-25.196V61.5c0-9.595 5.099-25.203 31.197-25.197h1.2c25.489-.006 30.601 13.202 30.601 20.403h-19.799c-.515-3.004-3.004-7.201-10.802-7.201h-1.2c-7.797 0-11.398 6-11.398 12.598v.597c0 6.604 4.197 12.001 11.398 12.001h1.2c8.401 0 10.205-4.8 10.726-7.2ZM391.195 87.3h19.202V37.506h-19.202V55.5h-22.796V37.505h-19.202V87.3h19.202V69.299h22.796V87.3Zm-133.8 0h19.202V37.506h-19.799l-22.199 28.797V37.504h-19.202v49.797h19.799l22.199-28.797V87.3ZM108 54c0 29.823-24.177 54-54 54S0 83.823 0 54 24.177 0 54 0s54 24.177 54 54ZM71.418 84.784V23.15H55.905c-15.005 0-23.958 7.455-23.958 19.939 0 9.817 5.023 15.424 12.566 20.828l.127.089-.089.126-13.9 20.708H41.98l15.538-23.222-5.321-3.588c-6.7-4.546-9.887-8.032-9.887-15.576 0-7.036 5.105-11.24 13.652-11.24h4.979V84.784h10.477Z"/>
  </g>
  <defs>
    <clipPath id="a">
      <path fill="#fff" d="M0 0h548.998v108H0z"/>
    </clipPath>
  </defs>
</svg>
